# xmcd
#
# Track frame offsets:
#	150
#	23155
#	46293
#	115667
#	139138
#	168545
#	186033
#	204389
#
# Disc length: 3198 seconds
#
# Revision: 0
# Processed by: cddbd v1.5.2PL0 Copyright (c) Steve Scherf et al.
# Submitted via: EasyCDDAExtractor 10.0.5.1
#
DISCID=670c7c08
DTITLE=Mastan and Homay - What World is This?
DYEAR=2008
DGENRE=
TTITLE0=Meh Pareh
TTITLE1=Naz Makon
TTITLE2=Setar Va Avaz
TTITLE3=Hamnavazieh Kobehee Va Avaz
TTITLE4=Avazeh Be To Che
TTITLE5=Az Badeh Madhoosham Konid
TTITLE6=In Che Harfist
TTITLE7=In Che Jahanist
EXTD=
EXTT0=
EXTT1=
EXTT2=
EXTT3=
EXTT4=
EXTT5=
EXTT6=
EXTT7=
PLAYORDER=
